<?xml version="1.0" encoding="UTF-8"?>
<svg width="257px" height="338px" viewBox="0 0 257 338" version="1.1" xmlns="http://www.w3.org/2000/svg" xmlns:xlink="http://www.w3.org/1999/xlink">
    <title>Artboard</title>
    <defs>
        <radialGradient cx="50%" cy="50%" fx="50%" fy="50%" r="98.1692102%" gradientTransform="translate(0.5, 0.5), scale(0.6602, 1), rotate(90), translate(-0.5, -0.5)" id="radialGradient-1">
            <stop stop-color="#5369C3" offset="0%"></stop>
            <stop stop-color="#8997D8" offset="100%"></stop>
        </radialGradient>
        <radialGradient cx="50%" cy="50%" fx="50%" fy="50%" r="98.7724665%" gradientTransform="translate(0.5, 0.5), scale(0.5415, 1), rotate(90), translate(-0.5, -0.5)" id="radialGradient-2">
            <stop stop-color="#5369C3" offset="0%"></stop>
            <stop stop-color="#8997D8" offset="100%"></stop>
        </radialGradient>
        <linearGradient x1="50%" y1="60.1862771%" x2="50%" y2="1.6475571e-15%" id="linearGradient-3">
            <stop stop-color="#C78C83" offset="0%"></stop>
            <stop stop-color="#7A4741" offset="100%"></stop>
        </linearGradient>
    </defs>
    <g id="Artboard" stroke="none" stroke-width="1" fill="none" fill-rule="evenodd">
        <g id="Group-7" transform="translate(1.8067, 2.4339)">
            <path d="M50.2325496,310.522052 C45.7011047,306.96775 41.6416065,299.837377 37.7529469,289.803681 C36.2293208,285.872352 35.8636519,281.473852 34.8394535,276.241901 C34.1209849,272.571721 33.3842983,270.663062 31.5342623,265.553207 C29.6842262,260.443352 30.2342896,262.975797 27.4494733,255.830555 C24.664657,248.685313 24.4809711,247.087135 22.6530629,240.893415 C21.5592675,237.187178 18.7177912,227.737738 18.0848732,225.036963 C16.3942474,217.822758 15.7866815,209.547866 16.2621756,200.212287 C16.167634,193.134955 16.4153484,187.750056 17.0053187,184.057591 C17.595289,180.365126 19.0500875,175.094454 21.3697143,168.245575 L20.5096292,162.305664 C20.9472229,159.083034 21.5149836,156.5051 22.2129113,154.57186 C22.910839,152.63862 24.2867984,149.832506 26.3407897,146.153517 C25.3680581,140.094346 24.957937,134.8103 25.1104265,130.30138 C25.2629159,125.79246 26.3859638,119.990117 28.4795701,112.894353 L30.4028595,108.496788 C34.3014831,93.8287762 40.2281307,80.4094077 48.1828023,68.2386827 C60.1148098,49.9825951 64.6947781,43.6059262 74.306892,36.5234404 C83.9190059,29.4409546 108.578321,15.3729111 133.724397,17.5907947 C160.374646,19.9413462 162.095045,21.5117201 176.588245,27.7169232 C191.532466,34.1152292 201.330539,44.6790164 213.476406,58.2523969 C225.622274,71.8257775 230.528472,80.8952577 233.658283,94.6402072 C235.744823,103.803507 236.433615,116.532995 235.72466,132.828672 C239.500916,130.487627 243.010089,131.658584 246.25218,136.341544 C249.494271,141.024504 250.254654,150.238292 248.53333,163.982909 C245.806902,169.701234 243.964101,174.074063 243.004926,177.101395 C242.045751,180.128727 241.567726,183.08085 241.570851,185.957766 L238.209457,194.602979 C240.123154,201.716034 239.559507,206.697821 236.518518,209.548338 C233.47753,212.398856 229.344356,212.624525 224.118998,210.225347 C224.048645,214.175103 223.88403,217.263612 223.625151,219.490872 C223.366273,221.718133 222.839588,224.57723 222.045097,228.068164 C217.882902,240.104722 214.233694,248.289183 211.097472,252.621549 C205.952036,259.729435 197.362411,263.309798 192.586834,268.387796 C183.445075,278.108471 169.076452,290.388382 149.480966,305.227529 C129.171143,317.467943 111.454595,323.996091 96.3313221,324.811976 C73.646413,326.035802 54.7639944,314.076355 50.2325496,310.522052 Z" id="Path" stroke="#000000" fill="#D3B1AD"></path>
            <path d="M157.80505,110.816106 C164.344173,110.816106 168.74206,113.695012 172.067122,114.317061 C180.88795,115.967251 180.264707,117.096983 180.264707,111.983071 C180.264707,109.602513 179.371013,108.973486 176.620105,106.306412 C171.233896,101.084349 160.397131,93.0410219 144.586042,93.0410219 C120.699726,93.0410219 96.2019328,108.992901 96.2019328,116.034531 C96.2019328,125.555189 121.428343,107.037707 143.022057,107.751049 C144.62067,107.803859 156.158601,110.816106 157.80505,110.816106 Z" id="Oval" fill="#BDA297"></path>
            <path d="M47.8722991,113.5401 C62.9220586,113.5401 68.5094852,123.960175 68.5094852,118.034534 C68.5094852,112.108893 57.8774814,99.8571216 40.7332053,99.8571216 C33.006025,99.8571216 32.8532396,101.953663 31.5613147,105.672738 C29.986849,110.205167 28.2434949,115.784711 27.925222,117.002416 C27.3457909,119.219306 32.8225397,113.5401 47.8722991,113.5401 Z" id="Oval" fill="#BDA297"></path>
            <g id="Group-4" transform="translate(49.4683, 215.951)">
                <path d="M40.725002,20.6150692 C61.1595377,20.6150692 77.725002,16.1379656 77.725002,10.6151181 C77.725002,9.4841819 80.9954708,6.75588139 80.0071118,5.9698938 C76.9441642,3.53410015 65.4343146,4.33512856 53.4632199,3.47857011 C50.4331652,3.26176296 44.0073242,0.615118064 40.725002,0.615118064 C34.0382165,0.615118064 31.7578018,2.98221945 25.0370894,2.86535475 C17.3672779,2.7319864 5.5164635,0.195772454 2.67970286,1.73234694 C0.4059145,2.96397894 6.54578382,7.8301786 6.54627581,9.48332909 C6.54627581,15.0061766 20.2904663,20.6150692 40.725002,20.6150692 Z" id="Oval" fill="#684559"></path>
                <g id="Group-3" transform="translate(11.5021, 2.3654)" stroke="#000000" stroke-width="0.5">
                    <path d="M3.02070217,0 C3.23250664,2.61456854 3.50244728,4.48222005 3.8305241,5.60295454 C4.32263932,7.28405628 5.30745053,9.9425664 5.93122695,9.9425664 C6.27794988,9.9425664 11.9180853,11.35418 18.3758642,11.8705666 C23.536037,12.283192 29.1319812,11.8675862 33.6011646,11.5909753 C40.3093066,11.1757888 49.344768,9.4962301 60.7075488,6.55229933 L66.4540252,2.85013469" id="Path-25" fill="#FFFFFF"></path>
                    <path d="M9.64033856,10.6227333 C9.26799632,9.74830208 8.95777906,8.74229801 8.70968678,7.60472114 C8.4615945,6.46714426 8.15137724,4.62827158 7.779035,2.08810309" id="Path-26" fill="#D8D8D8"></path>
                    <path d="M14.1965379,11.385436 C13.9554106,10.8362144 13.7015574,9.99512314 13.4349783,8.86216211 C13.1683992,7.72920108 12.9811908,5.79395706 12.873353,3.05643005" id="Path-26" fill="#D8D8D8"></path>
                    <path d="M32.764459,11.6227333 C33.0536097,10.2589951 33.27157,9.09906985 33.4183399,8.14295747 C33.5651099,7.18684508 33.5754997,5.67693105 33.4495093,3.61321536" id="Path-27" fill="#D8D8D8"></path>
                    <path d="M42.764459,10.6227333 C43.0536097,9.25899514 43.27157,8.09906985 43.4183399,7.14295747 C43.5651099,6.18684508 43.5754997,4.67693105 43.4495093,2.61321536" id="Path-27" fill="#D8D8D8"></path>
                    <path d="M52.264459,8.62273333 C52.5536097,7.25899514 52.77157,6.09906985 52.9183399,5.14295747 C53.0651099,4.18684508 53.0754997,2.67693105 52.9495093,0.613215362" id="Path-27" fill="#D8D8D8"></path>
                    <path d="M60.0285423,6.61797435 C60.279102,5.67491291 60.4337354,4.91480418 60.4924425,4.33764815 C60.5511496,3.76049212 60.5511496,3.00038339 60.4924425,2.05732196" id="Path-28" fill="#D8D8D8"></path>
                    <path d="M22.6221707,11.8589006 C22.3152723,10.798834 22.0943019,9.89197228 21.9592596,9.13831532 C21.8242172,8.38465837 21.7118543,7.12485346 21.6221707,5.3589006" id="Path-29" fill="#D8D8D8"></path>
                    <path d="M0,0.974232554 C0.194572626,2.6439168 0.373879098,3.78054387 0.537919416,4.38411376 C1.22555508,6.91420017 1.95936053,8.0369141 2.14658398,8.24973889 C2.40080264,8.53871993 3.43176369,8.8824227 5.23946713,9.28084717 L4.08139676,2.08810309 L0,0.974232554 Z" id="Path-38" fill="#FFFFFF"></path>
                </g>
                <g id="Group-2" transform="translate(0, -0)" fill="#BD93B4" stroke="#000000" stroke-width="0.5">
                    <path d="M24.5319922,0.343856867 C25.7696699,0.401168775 28.7955857,0.0231330978 34.3749824,0.343856867 C39.9543791,0.664580637 46.732296,0.647128831 55.5667142,1.78992338 C57.6411236,2.05826294 61.3430497,2.13566577 64.7537812,2.2849046 C67.0907336,2.3871595 69.3690726,2.85392589 72.211154,3.11382084 C74.1678718,3.29275346 77.297163,3.8470354 81.5990276,4.77666665 C81.3001859,8.07939721 80.14699,10.7824342 78.1394398,12.8857777 C77.2689482,13.7978062 63.7314068,22.3941709 61.8118102,23.1801423 C56.0733075,25.52975 50.7466881,27.0205416 45.8319522,27.6525171 C38.5015671,27.9998073 32.929494,27.9998073 29.1157328,27.6525171 C25.3019717,27.3052269 20.8169345,25.8144353 15.6606214,23.1801423 C11.4405019,20.5114154 8.46559427,17.816213 6.73589854,15.0945352 C5.84703035,13.6959004 5.97732361,12.0645328 4.81613425,9.76105844 C4.08384721,8.30840608 2.47846913,5.65136107 0,1.78992338 C0.0670630674,0.61937198 3.88984639,0.0228432511 11.46835,0.000337196543 L12.2387194,7.473855e-14 C15.6312362,0.00683025361 19.7289938,0.121449209 24.5319922,0.343856867 Z M4.21062068,2.36535475 C4.03740708,2.83870277 6.95885384,5.77785234 7.91641423,6.74059757 C8.87397461,7.7033428 10.4339664,10.6321492 13.7517967,12.5150862 C17.0696271,14.3980232 29.8542807,18.0430392 31.6280223,18.2131996 C32.5632678,18.3029205 36.344063,18.4721781 40.19798,18.5203281 L40.9954761,18.5284963 C44.1823587,18.5537303 47.2883683,18.4865407 48.7420572,18.2131996 C50.4077424,17.8999962 55.6982392,16.6035327 60.8250154,15.236699 L61.72727,14.9949484 C66.522005,13.7036978 70.9743064,12.39768 71.9256503,11.8379774 C72.8568725,11.2901129 74.5700562,10.1625018 76.7048581,8.3426489 C77.6597078,7.52866891 80.1393494,5.82408772 79.5707241,5.56281724 C79.2317359,5.40705984 75.8814373,5.2293721 72.5857542,5.11125782 L71.9493854,5.08916277 C69.9415913,5.0216894 68.0286179,4.97857011 66.9163557,4.97857011 C65.4645609,4.97857011 60.6994497,5.38508609 55.8650557,5.84947619 L54.9293726,5.93998719 C49.9437406,6.42556815 45.107297,6.94884968 43.9882501,7.12635029 C39.7695624,7.79550867 34.3120465,7.83392503 31.6280223,7.74696357 C25.432724,7.54623805 22.0598293,6.2452212 18.4470444,5.4217848 C14.8342595,4.5983484 13.4513263,3.96380655 10.56595,2.94643507 C7.6805737,1.92906359 4.38383429,1.89200673 4.21062068,2.36535475 Z" id="Combined-Shape"></path>
                </g>
            </g>
            <path d="M38.1414211,141.375826 C39.2538597,139.937474 40.1177877,138.954815 40.7332053,138.427851 C43.1203856,136.383777 45.0748397,135.051486 50.6738983,135.051486 C58.4381216,135.051486 63.986236,137.410769 67.3182417,142.129334 C64.8031465,142.005753 62.9717606,142.005753 61.8240838,142.129334 C57.1066015,142.637313 52.406455,144.222721 49.7444653,144.222721 C46.1110557,144.222721 42.2433744,143.273756 38.1414211,141.375826 Z" id="Path-7" stroke="#000000" stroke-width="0.5" fill="#F6EFEF"></path>
            <path d="M60.2378726,142.105025 C61.1837827,142.105025 60.6243734,142.105025 61.5218602,142.105025 C62.3098808,142.105025 62.6933174,142.303286 62.6933174,140.066106 C62.6933174,139.485393 62.4045803,138.68004 61.8271061,137.650045 C61.2753623,137.357118 60.8752338,137.14579 60.6267207,137.016061 C60.262056,136.8257 59.9140445,136.766537 59.6277489,136.674559 C59.0695186,136.495218 58.0165755,136.120116 57.6822074,136.036854 C56.7467924,135.803924 55.8099179,135.64031 54.8766629,135.524057 C54.0574097,135.422005 53.1480848,135.204363 52.5292874,135.382381 C50.4832905,135.97098 49.6933174,137.733899 49.6933174,140.066106 C49.6933174,141.944865 50.5059965,143.897246 51.0990806,143.897246 C51.2352381,143.897246 53.8148099,143.418084 56.1933174,142.917995 C57.9960382,142.538967 59.6474183,142.105025 60.2378726,142.105025 Z" id="Oval" fill="url(#radialGradient-1)"></path>
            <path d="M64.8293496,137.016061 C58.9827976,131.949062 53.8802377,129.201124 49.5216701,128.772248 C45.1631025,128.343371 40.7578567,130.155755 36.3059329,134.209399" id="Path-8" stroke="#000000" stroke-width="0.5"></path>
            <path d="M61.9892478,137.434029 C62.120853,137.714914 62.2075116,137.919119 62.2492235,138.046644 C62.510316,138.844876 62.6004922,139.448312 62.6232322,139.869501 C62.6514215,140.391623 62.5537117,141.136797 62.3301025,142.105025" id="Path-10" stroke="#000000" stroke-width="0.5"></path>
            <path d="M52.7298314,135.051486 C51.0307695,135.807061 49.9881546,137.031237 49.6019868,138.724014 C49.2158191,140.416791 49.6664512,142.249693 50.9538832,144.222721" id="Path-9" stroke="#000000" stroke-width="0.5"></path>
            <path d="M119.133936,140.632269 C121.191621,135.453009 126.966224,132.863379 136.457746,132.863379 C141.542277,132.863379 145.085685,133.879862 148.973434,135.001252 C151.219893,135.649226 153.606734,136.834946 156.133957,138.558414 C152.16191,138.7176 149.390065,138.902583 147.818424,139.113362 C140.435713,140.103488 135.617614,141.203393 132.042608,141.375826 C127.326024,141.603321 123.023133,141.355469 119.133936,140.632269 Z" id="Path-11" stroke="#000000" stroke-width="0.5" fill="#F6EFEF"></path>
            <circle id="Oval" fill="#000000" cx="56.6933174" cy="139.566106" r="2"></circle>
            <path d="M143.848612,139.510541 C144.417996,138.71747 144.702689,137.9341 144.702689,137.160431 C144.702689,135.576002 144.831238,134.388077 143.848612,133.898335 C142.390581,133.171649 140.163506,133.022217 137.206847,133.022217 C135.131649,133.022217 132.810032,132.975645 131.562961,133.321477 C130.369453,133.652455 129.716372,134.927991 129.716372,137.316106 C129.716372,139.81037 129.116138,141.186381 130.369453,141.186381 C130.81928,141.186381 131.682491,141.253767 132.583498,141.186381 C133.152278,141.143842 136.907316,140.585228 143.848612,139.510541 Z" id="Oval" fill="url(#radialGradient-2)"></path>
            <path d="M131.245224,133.171649 C130.581798,133.947061 130.064496,135.021421 129.693317,136.394731 C129.322138,137.768041 129.468557,139.455625 130.132573,141.457483" id="Path-14" stroke="#000000" stroke-width="0.5"></path>
            <path d="M143.848612,133.652455 C144.340232,134.361143 144.586042,135.38311 144.586042,136.718354 C144.586042,138.053599 144.39759,139.053099 144.020687,139.716856" id="Path-15" stroke="#000000" stroke-width="0.5"></path>
            <circle id="Oval" fill="#000000" cx="137.193317" cy="137.066106" r="2"></circle>
            <path d="M119.133936,140.632269 C117.323781,140.800175 115.556817,141.048027 113.833043,141.375826 C112.725136,141.58651 111.281429,140.972381 109.542883,141.375826 C108.898599,141.525338 107.841565,142.086451 106.371779,143.059166" id="Path-12" stroke="#000000" stroke-width="0.5"></path>
            <path d="M117.098612,132.863379 C122.117564,128.950357 127.733712,126.514293 133.947056,125.555189 C140.160401,124.596085 146.257413,125.986236 152.238092,129.725641" id="Path-13" stroke="#000000" stroke-width="0.5"></path>
            <path d="M38.1414211,141.566106 C37.6415759,141.464392 36.710006,141.644032 35.3467114,142.105025 C34.522234,142.383819 33.5041107,142.519564 32.1699735,143.069717 C31.5887117,143.30941 30.5875875,143.819806 29.1666009,144.600907" id="Path-16" stroke="#000000" stroke-width="0.5"></path>
            <path d="M137.633947,153.475962 C140.891412,152.887409 143.278397,152.310845 144.7949,151.746271 C146.958864,150.940655 150.392327,149.021852 151.708914,148.666694 C154.409496,147.938193 156.734538,147.353744 158.68404,146.913347" id="Path-17" stroke="#000000" stroke-width="0.5"></path>
            <path d="M49.4683298,155.12971 C45.3464707,155.499112 42.2706305,155.499112 40.2408093,155.12971 C38.9757732,154.899488 37.6997489,153.786843 36.3059329,153.098348 C35.7441731,152.820859 34.8601992,152.538642 33.654011,152.251696" id="Path-18" stroke="#000000" stroke-width="0.5"></path>
            <path d="M60.7025383,192.338725 C54.3002332,188.944626 51.0990806,185.71305 51.0990806,182.643997 C51.0990806,179.574944 53.7048891,176.116023 58.916506,172.267236 C59.4009495,170.958107 59.9962936,169.745695 60.7025383,168.629998 C61.408783,167.514301 62.5049907,165.937674 63.9911615,163.900117" id="Path-21" stroke="#000000" stroke-width="0.5"></path>
            <path d="M102.296476,169.678522 C104.898922,173.675229 106.667538,176.178208 107.602324,177.187458 C109.879701,179.646249 111.665225,181.972155 111.665225,184.472523 C111.665225,188.157181 108.542309,191.059721 102.296476,193.180144" id="Path-22" stroke="#000000" stroke-width="0.5"></path>
            <path d="M57.112669,185.968217 C58.4079452,185.209087 59.7634512,185.132886 61.1791869,185.739615 C62.5949227,186.346344 64.5024224,188.062232 66.9016862,190.887282" id="Path-23" stroke="#000000" stroke-width="0.5"></path>
            <path d="M79.5565899,190.414233 C81.529121,187.954983 84.8550635,186.579005 89.5344174,186.2863 C96.5534482,185.847242 99.3718162,186.904331 100.274065,187.515831 C101.176315,188.127332 100.422871,189.020031 99.2751591,189.477407 C98.5100178,189.782324 96.7304579,190.094599 93.9364796,190.414233" id="Path-24" stroke="#000000" stroke-width="0.5"></path>
            <path d="M223.161464,164.621419 C224.759236,156.807928 227.883234,150.154623 232.533456,144.661505 C232.855416,144.281186 233.990566,143.503604 234.819374,142.657092 C235.663179,141.795264 237.734026,138.368958 241.135527,138.368958 C244.995385,138.368958 247.051815,140.391123 247.304816,144.435453 C247.597592,149.15118 247.714439,152.518212 247.655357,154.536551 C247.596275,156.55489 247.182395,158.887624 246.413717,161.534753 C245.742367,163.278274 245.193961,164.548186 244.768501,165.34449 C244.34304,166.140793 243.695378,167.109473 242.825514,168.250529" id="Path-30" stroke="#000000" stroke-width="0.5"></path>
            <path d="M238.478345,146.480248 C239.918517,150.990876 240.922843,154.414306 241.491324,156.750537 C242.344045,160.254884 242.688086,162.848757 242.688086,164.255152 C242.688086,165.661547 241.754496,170.67303 241.258397,172.962033 C240.224924,177.73048 239.263938,179.972834 239.079765,180.295557 C238.807184,180.773197 237.807676,181.978239 236.081242,183.910682" id="Path-31" stroke="#000000" stroke-width="0.5"></path>
            <path d="M224.118998,210.225347 C224.390035,200.99401 224.390035,193.959146 224.118998,189.120753 C223.847962,184.28236 222.707154,179.236815 220.696575,173.984118" id="Path-32" stroke="#000000" stroke-linecap="round"></path>
            <path d="M224.322276,167.316681 C224.728062,170.104714 225.031171,172.007692 225.231602,173.025614 C225.591808,174.854978 226.140928,175.809098 226.140928,177.174137 C226.140928,179.678509 225.534711,181.668684 224.322276,183.144662" id="Path-33" stroke="#000000" stroke-width="0.5"></path>
            <path d="M226.659559,178.179834 C228.22999,178.386761 229.247836,178.49744 229.713098,178.511869 C232.347939,178.593587 233.117795,178.805089 234.087104,179.750375 C235.313156,180.946039 235.977886,183.485249 236.081294,187.368003" id="Path-34" stroke="#000000" stroke-width="0.5"></path>
            <path d="M226.140928,160.566106 C226.897317,159.673081 227.560683,159.135054 228.131028,158.952026 C230.35576,158.238093 232.870858,158.74711 234.06719,159.587895 C236.551758,161.334057 237.042425,164.778745 237.269778,167.409283 C237.421347,169.162976 236.803372,171.770105 235.415851,175.230671" id="Path-35" stroke="#000000" stroke-width="0.5"></path>
            <path d="M50.5676412,185.335342 C43.4328129,191.266936 38.6789101,196.011007 36.3059329,199.567554 C33.9329557,203.1241 32.3562393,207.868171 31.5757837,213.799765" id="Path-36" stroke="#000000" stroke-width="0.5"></path>
            <path d="M112.752858,179.98103 C118.431529,183.449196 123.608907,186.668828 128.284994,189.639925 C132.961081,192.611022 136.941978,196.375379 140.227687,200.932995" id="Path-37" stroke="#000000" stroke-width="0.5"></path>
            <path d="M132.767189,28.4050397 C148.229845,28.4050397 179.924001,38.8817054 194.928341,56.039185 C198.467074,60.0857302 207.830589,70.7323079 208.976319,80.8574009 C210.499029,94.3139557 203.434175,107.878056 206.604317,113.81885 C219.108672,137.251807 228.757912,141.89983 233.097885,135.404731 C234.227282,133.714503 237.001977,131.161766 237.001977,128.11673 C237.001977,111.842988 239.798778,89.0350931 218.128119,59.7748875 C210.330048,49.2457576 193.931512,37.6698162 180.274262,26.9351576 C161.738783,12.3661905 178.577392,7.63594249 132.767189,0 C84.7184158,0 68.3080609,33.5835398 65.4847515,42.2021946 C62.6614421,50.8208493 84.7184158,28.4050397 132.767189,28.4050397 Z" id="Oval" fill="#BDA297"></path>
            <path d="M95.8587029,324.197824 C97.3409618,324.197824 101.951574,323.657101 106.722426,322.696784 C112.797292,321.473984 119.362216,319.170292 121.120392,318.521284 C127.22842,316.266584 133.87833,313.519957 140.234655,309.829764 C143.423775,307.978305 146.42203,306.3435 149.526567,304.282811 C151.823116,302.758437 154.243588,300.708803 156.827564,298.82687 C158.768183,297.4135 160.712829,295.698042 162.732816,294.063624 C166.252397,291.21585 170.128286,288.1695 173.761556,284.972012 C179.067954,280.302075 184.251005,275.406621 189.264205,270.88055 C190.789567,269.503406 192.146682,267.715841 193.639285,266.42385 C197.092284,263.434946 200.42195,261.15474 203.559506,259.052944 C206.272709,257.235416 208.155058,255.3552 210.397729,252.322432 C215.290938,245.705337 217.804065,237.88565 220.696575,230.360775 C221.374579,228.596945 221.834217,226.178346 222.244654,223.77903 C222.598964,221.707815 222.936211,219.702763 223.112378,217.529416 C223.933164,207.403476 223.743221,192.651473 222.509426,182.773919 C222.142186,179.833862 221.095593,176.939186 220.477934,175.230671 C220.269291,174.653542 220.07605,174.300509 220.0063,173.597756 C219.875819,172.283119 219.71302,164.387788 222.244654,151.520803 C222.819743,148.597922 225.861667,143.811131 231.370427,137.160431 C226.762307,134.13225 223.720383,132.6999 222.244654,132.863379 C220.88526,133.013971 207.059032,108.683927 205.959253,112.936452 C204.668187,117.928626 214.950704,164.787716 211.552038,171.129062 C208.153372,177.470407 207.520813,188.624907 198.191583,200.932995 C186.569787,216.265675 165.284342,229.679403 157.056718,234.484393 C148.829094,239.289384 139.476875,238.511813 131.067343,241.154735 C125.384058,242.94086 120.937547,247.944178 115.425958,248.54046 C103.175919,249.865754 95.2435936,245.092679 93.7349183,245.2379 C83.2141819,246.250597 81.3961466,245.2379 78.1260193,245.2379 C71.9147125,245.2379 71.4732599,247.084237 67.3182417,246.665474 C62.8436012,246.214499 58.9586544,243.752666 54.6588989,240.134025 C50.3591434,236.515383 51.026819,233.175175 49.4683154,226.566081 C47.9098117,219.956987 45.5348024,218.101561 48.0582319,215.950663 C50.5816613,213.799765 60.0691051,213.799765 64.9315396,213.799765 C69.7939742,213.799765 73.8980398,212.874014 82.59263,213.799765 C87.8175575,214.356086 94.5356182,214.856478 100.673406,215.378912 C105.428798,215.78368 123.933602,218.007655 128.367606,218.316342 C135.549242,218.816315 131.700492,239.118293 135.962093,239.843026 C136.502865,239.934991 138.973519,239.207584 141.021162,239.016631 C143.223416,238.81126 146.153265,238.548073 147.002359,237.574454 C147.851452,236.600835 147.133338,234.272314 147.217079,232.48648 C147.519139,226.044802 143.046083,216.628931 141.875061,213.799765 C139.571941,208.235474 133.096425,204.837947 120.064569,200.458549 C111.337819,197.525896 100.331138,195.497423 91.3971542,193.874995 C85.6180348,192.825497 79.3274719,198.008492 75.1669972,197.136778 C69.9933366,196.052778 66.121376,193.388728 64.347696,193.388728 C62.5740159,193.388728 55.1620115,193.982466 48.0582319,198.179947 C41.7048469,201.934036 36.7512597,207.23904 36.3059329,207.83415 C34.8998832,209.713118 34.615801,216.024663 35.1651278,221.372773 C35.6712113,226.299877 36.9952334,230.366505 36.3059329,230.360775 C33.0021623,230.333311 29.1217334,226.596606 26.7414563,221.929558 C23.3371242,215.254629 19.2314563,207.238041 17.4086241,210.225347 C16.6371072,211.489729 17.1459515,216.109735 17.5854571,219.22047 C17.9618795,221.884714 18.1356238,222.833919 19.1141096,226.441393 C19.5271093,227.964037 20.2231292,230.851173 20.8082375,232.48648 C21.8247122,235.327403 22.4406918,237.703531 23.3873718,240.704655 C24.625228,244.628853 25.7104913,248.911778 27.0334245,252.970426 C27.5998296,254.708109 28.2276329,255.857435 28.800613,257.452149 C28.9421498,257.846073 29.6191422,259.664802 29.8690497,260.000852 C30.6123897,261.000422 33.2521386,268.655767 34.3223708,271.490555 C34.5654512,272.134417 35.3023784,275.206435 35.8771501,278.410586 C36.4260084,281.470279 37.0274677,285.038575 37.3041311,286.210177 C38.6917624,292.086462 41.0270048,295.563681 43.0691907,299.856242 C44.2673856,302.374782 45.0078172,303.104345 46.3935671,305.237036 C47.5100492,306.95532 49.0391511,308.385845 50.5816613,309.829764 C52.458017,311.58619 55.4223168,313.145074 57.9571418,314.595406 C61.3048446,316.510835 64.4784123,317.866193 68.7483317,319.473588 C72.7323023,320.973338 76.6789595,322.177743 81.9790918,323.246037 C85.8072797,324.017647 90.6368687,324.197824 95.8587029,324.197824 Z" id="Oval" fill="#BDA297"></path>
            <g id="Group" transform="translate(0, 106.3064)" stroke="#000000" stroke-width="0.5">
                <path d="M126.620914,0 L148.331112,0.749418799 C151.006602,0.749418799 153.647547,1.47141691 156.253948,2.91541314 C160.16355,5.08140747 167.758027,12.0998881 169.208489,12.6616556 C169.887429,12.9246106 172.359258,13.2163848 174.873897,13.4807313 L175.559454,13.5521036 C176.825227,13.6827683 178.061378,13.8051441 179.042917,13.9119998 L179.447332,13.9568238 C180.286948,14.0517924 180.879313,14.1324881 181.044286,14.1931213 C181.796323,14.4695198 181.596392,14.7718216 182.309075,14.8773566 C184.723977,15.2349581 188.134686,15.1992532 190.88137,15.487339 C196.217292,16.046997 200.966681,16.0761798 202.223169,16.5192437 C203.060828,16.8146196 204.91566,17.6185913 207.787667,18.9311586 L235.707379,18.9311586 C236.748778,19.2333661 237.545484,20.0365118 238.097497,21.3405958 C238.649511,22.6446799 238.819443,23.9185846 238.607293,25.1623099 L236.481293,25.6481832 C236.5403,25.220832 236.46435,24.7615801 236.253444,24.2704277 C235.937086,23.5336989 236.062905,23.3253556 235.132086,22.8563112 C234.691993,22.6345461 228.065824,22.2958833 219.284446,22.2806406 L217.951579,22.2808349 C217.652018,22.2814416 217.350287,22.2824321 217.046534,22.2838227 C215.869545,22.2892111 214.092765,22.3257088 212.321489,22.3761216 L211.697548,22.3944642 C209.210581,22.4699216 206.876517,22.5690811 206.398518,22.6435625 C206.096254,22.690661 205.65676,22.8520221 205.154725,23.041123 L204.634611,23.2362658 C203.831468,23.5332364 202.943628,23.8277291 202.223169,23.8277291 C200.862302,23.8277291 192.30616,23.3284604 187.97635,23.098418 C184.792666,22.9292691 183.550709,22.7629475 182.375317,22.6867471 L182.093541,22.670234 C181.764053,22.6530917 181.428023,22.6435625 181.044286,22.6435625 C179.180424,22.6435625 175.329649,23.0021033 173.569578,23.9884859 C171.809507,24.9748685 171.022644,26.6571256 170.746525,27.7686178 C170.470405,28.8801099 169.992676,36.6151446 169.800344,39.8488923 C169.518419,44.5890208 169.590095,47.714876 169.386839,48.5947164 C168.873961,50.8148265 160.177849,61.6593242 155.302589,65.3172646 C152.052415,67.7558916 147.255766,69.3031692 140.912641,69.9590973 C131.442439,70.3419365 124.315285,70.1131667 119.531177,69.272788 C112.355015,68.0122199 106.08188,64.2027746 104.650692,63.313761 C103.219504,62.4247474 100.381775,59.6304714 98.5450547,56.9013868 C97.3205743,55.0819971 95.748533,52.313107 93.8289308,48.5947164 C88.7924917,37.4340555 85.9735425,31.2388749 85.3720833,30.0091748 C84.770624,28.7794748 83.8626784,27.0606354 82.6482463,24.8526566 C81.9466689,23.5217597 80.7469417,23.0126593 79.0490645,23.3253556 C77.3511873,23.6380519 76.3658768,24.9539576 76.093133,27.2730726 C75.7247597,30.9684094 75.0533011,34.2472995 74.078757,37.1097428 C73.104213,39.9721861 70.9133051,45.1006758 67.5060334,52.4952119 C63.7320356,57.7144801 60.7860854,61.0676889 58.6681829,62.5548383 C56.5502804,64.0419877 53.5437595,65.091615 49.6486201,65.7037204 C45.126366,65.8059268 41.5615581,65.8059268 38.9541963,65.7037204 C36.3468345,65.601514 32.5516983,65.3118193 27.5687878,64.8346363 C23.9514076,62.9616369 21.4503735,61.4982666 20.0656855,60.4445254 C17.8613073,58.7670038 16.1370965,56.4637024 14.8847941,55.1156939 C12.4525344,52.497551 10.278662,48.8460711 8.36317707,44.1612542 C7.89764711,38.5771147 7.45372726,34.3178352 7.03141751,31.3834158 C6.60910776,28.4489963 6.19612444,26.7540838 5.79246755,26.2986783 C5.63893353,25.2121662 5.19885391,24.4421021 4.4722287,23.9884859 C3.38229089,23.3080617 0.950629215,23.253556 0.621968254,22.8563112 C0.293307293,22.4590664 0.0265522681,21.5243409 0.0265522681,20.1421961 C0.0265522681,18.7600513 -0.138677567,16.5353416 0.355213229,16.0841988 C0.849104025,15.633056 3.19557739,15.7831994 4.4722287,15.487339 C5.32332958,15.2900987 5.84056898,14.9508256 6.0239469,14.4695198 C10.1254529,9.19644005 13.3795424,5.83338919 15.7862153,4.38036722 C18.1928883,2.92734524 21.8210935,2.23922075 26.6708311,2.31599376 C35.260953,2.442048 46.8914116,2.3351377 61.5622069,1.99526287 C67.2577062,1.86331659 74.0834376,2.01739804 81.8936002,1.78742291 C90.0987364,1.54581754 105.007841,0.950009902 126.620914,0 Z M121.656966,3.96851973 L120.629666,3.96851973 C116.417378,3.97487741 113.05667,4.06070608 110.547544,4.22600575 C105.328562,4.56982906 100.149078,5.49759174 95.0090933,7.00929379 C92.222802,10.0576686 90.400675,12.7189978 89.5427123,14.9932816 C88.6847496,17.2675653 88.3047748,20.4435579 88.4027879,24.5212592 C89.705923,30.0927648 91.2138697,34.8764809 92.926628,38.8724073 C94.6393864,42.8683338 97.3803293,47.9974292 101.149457,54.2596935 C102.054292,55.8994502 103.244327,57.4367045 104.71956,58.8714566 C106.194794,60.3062086 108.62914,62.1865673 112.022599,64.5125327 C117.066033,66.5979318 122.207853,67.6406314 127.448062,67.6406314 C130.47836,67.6406314 135.518411,67.8564113 140.085073,67.2468338 C142.305296,66.950469 145.784627,66.0390353 150.523067,64.5125327 C153.133275,62.6159206 154.942573,61.2083476 155.950961,60.2898137 C159.613564,56.953574 161.870604,53.9769252 163.251215,51.9380043 C165.201991,49.0570495 166.287722,45.3846044 166.508409,40.9206692 L166.173473,24.5212592 C165.515837,18.82755 163.959482,14.7857426 161.504408,12.395837 C161.463154,12.355678 161.420677,12.3139335 161.37696,12.2706892 L160.626091,11.520251 C158.986403,9.89336146 156.232403,7.3655898 151.948923,6.02779928 C149.643225,5.30769772 144.746029,4.70709988 137.257336,4.22600575 C131.205631,4.06070608 126.005508,3.97487741 121.656966,3.96851973 Z M19.1224048,7.84480638 C14.4798454,9.82989396 11.2684338,17.0181965 10.6565805,19.3911646 C10.0447272,21.7641327 10.5526375,25.6736567 10.6565805,28.840862 C10.7258759,30.9523323 10.929827,34.0169428 11.2684338,38.0346935 C11.8043299,42.088567 12.4995087,45.0323338 13.35397,46.8659938 C15.1349266,50.6878976 18.6938403,54.4246226 20.4082782,56.4599839 C23.3565371,59.9601234 27.1408659,61.9279787 31.7612647,62.3635499 L46.6607097,63.2931088 C51.5483061,63.8384167 55.8841754,61.5607084 59.6683175,56.4599839 C63.4524595,51.3592594 66.9619452,43.0620492 70.1967744,31.5683534 C71.142986,26.0343536 71.3509725,21.9752907 70.8207338,19.3911646 C70.2904951,16.8070385 68.5087442,13.1963374 65.4754811,8.55906141 C64.2288914,7.45381286 62.825188,6.78993906 61.2643711,6.56743999 C56.7366396,5.9219985 50.9125282,5.9836355 46.9766481,5.99207319 L45.8899108,5.99233912 C45.204635,5.99060122 44.6016393,5.98411422 44.1040137,5.96736572 C32.5824983,5.57958804 21.0507855,7.0202602 19.1224048,7.84480638 Z M70.0762592,6.8866226 C68.9278121,8.59801123 75.5038334,18.1536633 76.2267808,18.7029036 C76.9497282,19.252144 82.6987099,19.5899782 83.674669,18.7029036 C84.6506281,17.8158291 89.2488365,7.68206821 88.5740046,6.57816788 C87.8991726,5.47426755 71.2247064,5.17523396 70.0762592,6.8866226 Z" id="Combined-Shape" fill="url(#linearGradient-3)"></path>
                <path d="M10.3600392,23.8658508 C13.3481306,24.0278741 15.0527485,24.0278741 15.4738927,23.8658508 C16.105609,23.6228157 17.4760699,22.4066686 18.2959226,22.4066686 C18.8424911,22.4066686 21.0312643,22.4066686 24.8622422,22.4066686 L25.6655007,18.992938 C21.4686896,18.992938 19.1571373,18.992938 18.7308439,18.992938 C18.0914038,18.992938 16.9170588,17.1889416 16.105609,16.7611921 C15.5646425,16.4760257 14.1089389,16.4119975 11.7384982,16.5691075 C11.1743209,17.7653133 10.8017745,18.7900793 10.620859,19.6434055 C10.4399435,20.4967317 10.3530036,21.9042135 10.3600392,23.8658508 Z" id="Path-6" fill="#845049"></path>
            </g>
        </g>
    </g>
</svg>