<?xml version="1.0" encoding="UTF-8"?>
<svg width="320px" height="220px" viewBox="0 0 320 220" version="1.1" xmlns="http://www.w3.org/2000/svg" xmlns:xlink="http://www.w3.org/1999/xlink">
    <title>case_connected_shower</title>
    <defs>
        <linearGradient x1="100%" y1="100%" x2="100%" y2="-28.53258%" id="linearGradient-1">
            <stop stop-color="#464887" offset="0%"></stop>
            <stop stop-color="#5BDAFF" offset="100%"></stop>
        </linearGradient>
        <filter x="-5.0%" y="-3.2%" width="110.0%" height="110.0%" filterUnits="objectBoundingBox" id="filter-2">
            <feOffset dx="0" dy="2" in="SourceAlpha" result="shadowOffsetOuter1"></feOffset>
            <feGaussianBlur stdDeviation="1.5" in="shadowOffsetOuter1" result="shadowBlurOuter1"></feGaussianBlur>
            <feColorMatrix values="0 0 0 0 0   0 0 0 0 0   0 0 0 0 0  0 0 0 0.2 0" type="matrix" in="shadowBlurOuter1" result="shadowMatrixOuter1"></feColorMatrix>
            <feMerge>
                <feMergeNode in="shadowMatrixOuter1"></feMergeNode>
                <feMergeNode in="SourceGraphic"></feMergeNode>
            </feMerge>
        </filter>
        <radialGradient cx="50%" cy="50%" fx="50%" fy="50%" r="50.0000043%" id="radialGradient-3">
            <stop stop-color="#E4E4E4" offset="0%"></stop>
            <stop stop-color="#D5D5D5" offset="100%"></stop>
        </radialGradient>
        <path d="M0.537795212,0 L0.592839825,0.002772687 C0.864278427,0.0302755794 1.07559042,0.259010672 1.07559042,0.53779315 L1.07281773,0.592837552 C1.04531473,0.864275113 0.81657876,1.0755863 0.537795212,1.0755863 L0.482750599,1.07281361 C0.211311997,1.04531072 0,0.816575628 0,0.53779315 C0,0.240425173 0.240426095,0 0.537795212,0 Z" id="path-4"></path>
        <linearGradient x1="43.7376758%" y1="52.7197852%" x2="56.6889941%" y2="52.7507692%" id="linearGradient-6">
            <stop stop-color="#00B1FF" offset="0%"></stop>
            <stop stop-color="#FC0303" offset="100%"></stop>
        </linearGradient>
        <path d="M0.53927307,0 L0.593636409,0.00277581567 C0.826800901,0.026663694 1.02551828,0.20252356 1.06821048,0.444575671 L1.07500408,0.499251617 C1.09487945,0.771316315 0.906107402,1.01972435 0.632069106,1.06757213 L0.577392745,1.07450935 C0.305323914,1.09503187 0.0568654919,0.905865109 0.0082266602,0.631432428 L0.00143316484,0.576761116 C-0.0184406667,0.304741213 0.170356099,0.05667918 0.444789832,0.00843597098 C0.476424845,0.00295258984 0.508059857,0 0.53927307,0 Z" id="path-7"></path>
        <linearGradient x1="43.7374316%" y1="52.8202734%" x2="56.68875%" y2="52.8512575%" id="linearGradient-9">
            <stop stop-color="#00B1FF" offset="0%"></stop>
            <stop stop-color="#FC0303" offset="100%"></stop>
        </linearGradient>
        <path d="M0.538735916,0 L0.593231863,0.00279050985 C0.791569966,0.0231432662 0.970975637,0.153604972 1.04405252,0.353888983 L1.06026258,0.4065377 C1.12719658,0.67095627 0.984394155,0.948651299 0.722218989,1.04395141 L0.669574806,1.06008726 C0.405201563,1.126675 0.127876192,0.98389784 0.0325757166,0.722119116 L0.0163701872,0.669405625 C-0.0505205638,0.404732184 0.0926031528,0.127778598 0.353987443,0.0324784883 C0.415148468,0.0105449637 0.477153092,0 0.538735916,0 Z" id="path-10"></path>
        <linearGradient x1="43.7367383%" y1="53.1133691%" x2="56.6880566%" y2="53.1443532%" id="linearGradient-12">
            <stop stop-color="#00B1FF" offset="0%"></stop>
            <stop stop-color="#FC0303" offset="100%"></stop>
        </linearGradient>
        <path d="M0.537368324,0 L0.592944292,0.0028770879 C0.758758577,0.0200776109 0.914288953,0.113843428 1.00387931,0.269107474 L1.02896622,0.318203548 C1.14072216,0.567244904 1.04851104,0.865082462 0.80689863,1.00388055 L0.757876513,1.02903698 C0.50918021,1.14109524 0.211316795,1.04853847 0.0721227406,0.807322423 L0.0470403566,0.758226246 C-0.0646723259,0.509183345 0.0278600856,0.211321073 0.268681618,0.0721275519 C0.353463452,0.0231989202 0.446259488,0 0.537368324,0 Z" id="path-13"></path>
        <linearGradient x1="43.7355957%" y1="53.5901465%" x2="56.6869141%" y2="53.6211305%" id="linearGradient-15">
            <stop stop-color="#00B1FF" offset="0%"></stop>
            <stop stop-color="#FC0303" offset="100%"></stop>
        </linearGradient>
        <path d="M0.537891935,0 L0.59532184,0.00305721566 C0.728782873,0.0173069217 0.857036486,0.0812489455 0.950412498,0.192340138 L0.985614003,0.239302376 C1.13624828,0.464672028 1.09635536,0.772003824 0.883768072,0.950733929 L0.836879391,0.985935299 C0.611806322,1.136569 0.304158403,1.09667623 0.126214973,0.884089759 L0.0908609953,0.837201132 C-0.0604119167,0.612127177 -0.0201778048,0.304454193 0.192015799,0.126117766 C0.293247839,0.0413362578 0.415991687,0 0.537891935,0 Z" id="path-16"></path>
        <linearGradient x1="43.7340527%" y1="54.236123%" x2="56.6853711%" y2="54.2671071%" id="linearGradient-18">
            <stop stop-color="#00B1FF" offset="0%"></stop>
            <stop stop-color="#FC0303" offset="100%"></stop>
        </linearGradient>
        <path d="M0.538452127,0 L0.599513559,0.00345445201 C0.700950641,0.0149855651 0.79989793,0.0554665092 0.883906463,0.126117766 L0.926811101,0.16623512 C1.11463678,0.361966894 1.12849432,0.671896969 0.950550889,0.884089759 L0.910433257,0.926994107 C0.714698983,1.11481731 0.404741474,1.12864856 0.19215419,0.950312131 L0.149249802,0.910273513 C-0.0385723755,0.714882927 -0.0523774263,0.404926607 0.126353364,0.192340138 C0.232647006,0.0653787751 0.385338666,0 0.538452127,0 Z" id="path-19"></path>
        <linearGradient x1="43.7321484%" y1="55.0316797%" x2="56.6834668%" y2="55.0626637%" id="linearGradient-21">
            <stop stop-color="#00B1FF" offset="0%"></stop>
            <stop stop-color="#FC0303" offset="100%"></stop>
        </linearGradient>
        <path d="M0.538837991,0 L0.593584278,0.00280411675 C0.666592825,0.0103087565 0.73927743,0.0329846465 0.807102897,0.0721275519 L0.853352317,0.102094506 C1.07454562,0.261867698 1.14367307,0.566106378 1.00408357,0.807322423 L0.974190753,0.853497521 C0.814764501,1.07434397 0.510524655,1.14349587 0.269307684,1.00430235 L0.222993285,0.974335391 C0.00154201866,0.814562199 -0.0668934107,0.510323519 0.0719052066,0.269107474 C0.171871846,0.0965918677 0.352824117,0 0.538837991,0 Z" id="path-22"></path>
        <linearGradient x1="43.7299414%" y1="55.952627%" x2="56.6812598%" y2="55.983611%" id="linearGradient-24">
            <stop stop-color="#00B1FF" offset="0%"></stop>
            <stop stop-color="#FC0303" offset="100%"></stop>
        </linearGradient>
        <path d="M0.537737427,0 L0.599210896,0.00356185441 C0.640328601,0.00834223797 0.681571284,0.0179967381 0.7220641,0.0329002868 L0.772806474,0.0542552801 C1.01831611,0.17261117 1.1387763,0.460340391 1.04347583,0.722119116 L1.0220465,0.772930806 C0.903342607,1.01874071 0.615612283,1.13882972 0.353832555,1.04352961 L0.303090283,1.022105 C0.0575821963,0.903446358 -0.0628532849,0.616063143 0.0328426279,0.353888983 C0.112141059,0.135397334 0.318401341,0 0.537737427,0 Z" id="path-25"></path>
        <linearGradient x1="43.7275098%" y1="56.9709961%" x2="56.6788281%" y2="57.0019801%" id="linearGradient-27">
            <stop stop-color="#00B1FF" offset="0%"></stop>
            <stop stop-color="#FC0303" offset="100%"></stop>
        </linearGradient>
        <path d="M0.536851056,0 L0.583934499,0.00200354311 L0.631334293,0.00843597098 L0.685047393,0.0206318806 C0.947560844,0.0944795797 1.1165363,0.357395183 1.06789747,0.631432428 L1.05563663,0.685071178 C0.981532234,0.947237615 0.719332353,1.11623714 0.444898619,1.06799393 L0.391185519,1.05565889 C0.128672069,0.981207227 -0.0403033845,0.719008352 0.00833544722,0.444575671 C0.0543116654,0.183482369 0.281240155,0 0.536851056,0 Z" id="path-28"></path>
        <linearGradient x1="43.7249121%" y1="58.0558398%" x2="56.6762305%" y2="58.0868239%" id="linearGradient-30">
            <stop stop-color="#00B1FF" offset="0%"></stop>
            <stop stop-color="#FC0303" offset="100%"></stop>
        </linearGradient>
        <path d="M0.537795212,0 L0.592849299,0.00277752697 C0.864380582,0.0303283043 1.07643402,0.259458832 1.07643402,0.538636747 L1.07365185,0.593611639 C1.04605617,0.864747989 0.81657876,1.0764299 0.537795212,1.0764299 L0.48282011,1.07365258 C0.21168272,1.04610489 0,0.817023789 0,0.538636747 C0,0.240846971 0.240847895,0 0.537795212,0 Z" id="path-31"></path>
        <linearGradient x1="43.7222363%" y1="59.1741992%" x2="56.6735547%" y2="59.2051832%" id="linearGradient-33">
            <stop stop-color="#00B1FF" offset="0%"></stop>
            <stop stop-color="#FC0303" offset="100%"></stop>
        </linearGradient>
        <path d="M0.539381857,0 L0.593739047,0.00277581567 C0.826851582,0.026663694 1.02520526,0.20252356 1.06789747,0.444575671 L1.07476047,0.499251617 C1.09493551,0.771316315 0.905768026,1.01972435 0.631334293,1.06757213 L0.576736916,1.07450935 C0.305061978,1.09503187 0.0569742789,0.905865109 0.00833544722,0.631432428 L0.00147244134,0.576761116 C-0.0187026025,0.304741213 0.170464886,0.05667918 0.444898619,0.00843597098 C0.476533632,0.00295258984 0.508168644,0 0.539381857,0 Z" id="path-34"></path>
        <linearGradient x1="43.7195605%" y1="60.2920801%" x2="56.6708789%" y2="60.3230641%" id="linearGradient-36">
            <stop stop-color="#00B1FF" offset="0%"></stop>
            <stop stop-color="#FC0303" offset="100%"></stop>
        </linearGradient>
        <path d="M0.538159227,0 L0.592751837,0.00279050985 C0.791412148,0.0231432662 0.970785598,0.153604972 1.04347583,0.353888983 L1.05968599,0.406532963 C1.12662154,0.670905193 0.983843828,0.948229501 0.7220641,1.04352961 L0.669424654,1.0596702 C0.405097751,1.12630428 0.128143103,0.98389784 0.0328426279,0.722119116 L0.0165582169,0.669405625 C-0.0507248824,0.404732184 0.0920528263,0.127778598 0.353832555,0.0324784883 C0.414571779,0.0105449637 0.476998203,0 0.538159227,0 Z" id="path-37"></path>
        <linearGradient x1="43.7169727%" y1="61.3755371%" x2="56.668291%" y2="61.4065211%" id="linearGradient-39">
            <stop stop-color="#00B1FF" offset="0%"></stop>
            <stop stop-color="#FC0303" offset="100%"></stop>
        </linearGradient>
        <path d="M0.53715079,0 L0.592841066,0.0028775097 C0.758962844,0.0200818289 0.914493219,0.113885608 1.00408357,0.269529273 L1.02923537,0.318477058 C1.14124772,0.566826401 1.04831987,0.864713388 0.807102897,1.00430235 L0.758080676,1.02938453 C0.509382828,1.14109524 0.211494699,1.04853847 0.0719052066,0.807322423 L0.0468925391,0.758295756 C-0.0645158418,0.509554067 0.0276952766,0.211321073 0.269307684,0.0721275519 C0.353667718,0.0231989202 0.446041954,0 0.53715079,0 Z" id="path-40"></path>
        <linearGradient x1="43.714541%" y1="62.3916406%" x2="56.6658594%" y2="62.4226246%" id="linearGradient-42">
            <stop stop-color="#00B1FF" offset="0%"></stop>
            <stop stop-color="#FC0303" offset="100%"></stop>
        </linearGradient>
        <path d="M0.538030327,0 L0.595460232,0.00305721566 C0.728921265,0.0173069217 0.857174878,0.0812489455 0.950550889,0.192340138 L0.985752394,0.239228765 C1.13638667,0.46430272 1.09649375,0.771975704 0.883906463,0.950312131 L0.837017782,0.985592361 C0.611944713,1.136569 0.304296794,1.09667623 0.126353364,0.884089759 L0.0909941375,0.837127521 C-0.0603260161,0.611757869 -0.0204330936,0.304426073 0.19215419,0.125695968 C0.29338623,0.0413362578 0.416130079,0 0.538030327,0 Z" id="path-43"></path>
        <linearGradient x1="43.7123438%" y1="63.309502%" x2="56.6636621%" y2="63.340486%" id="linearGradient-45">
            <stop stop-color="#00B1FF" offset="0%"></stop>
            <stop stop-color="#FC0303" offset="100%"></stop>
        </linearGradient>
        <path d="M0.538285701,0 L0.599378378,0.00345249923 C0.700913099,0.0149738485 0.800153305,0.0553962094 0.884161838,0.125695968 L0.92698749,0.165886933 C1.11446848,0.361914403 1.12829977,0.67150329 0.949962664,0.884089759 L0.909923892,0.926994107 C0.714532558,1.11481731 0.404575049,1.12864856 0.191987765,0.950312131 L0.149161863,0.910194777 C-0.0383226248,0.714463004 -0.0522064116,0.404532928 0.125343338,0.192340138 C0.232058781,0.0653787751 0.384750441,0 0.538285701,0 Z" id="path-46"></path>
        <linearGradient x1="43.7124023%" y1="63.2859082%" x2="56.6637207%" y2="63.3168922%" id="linearGradient-48">
            <stop stop-color="#00B1FF" offset="0%"></stop>
            <stop stop-color="#FC0303" offset="100%"></stop>
        </linearGradient>
        <path d="M0.53918292,0 L0.593929207,0.00280411675 C0.666937754,0.0103087565 0.739622359,0.0329846465 0.807447826,0.0721275519 L0.853618467,0.102024996 C1.07442097,0.261496976 1.14322712,0.566106378 1.0044285,0.807322423 L0.974456698,0.853567032 C0.814636553,1.07471469 0.510025983,1.14349587 0.268809013,1.00430235 L0.222638372,0.974335494 C0.00183587036,0.814563847 -0.0669702818,0.510349882 0.0718283355,0.269529273 C0.171794975,0.0965918677 0.352747246,0 0.53918292,0 Z" id="path-49"></path>
        <linearGradient x1="43.7145996%" y1="62.3649512%" x2="56.665918%" y2="62.3959352%" id="linearGradient-51">
            <stop stop-color="#00FFFF" offset="0%"></stop>
            <stop stop-color="#FC0303" offset="100%"></stop>
        </linearGradient>
        <path d="M0.537887984,0 L0.599361453,0.00354623225 C0.640479158,0.00829537146 0.681721841,0.0178561386 0.722214657,0.0324784883 L0.772961665,0.0539030947 C1.01851609,0.172561741 1.1393223,0.459944955 1.04362638,0.722119116 L1.0222018,0.772856662 C0.903544242,1.01832056 0.61618464,1.13843428 0.354404912,1.04352961 L0.3036578,1.02210037 C0.0581018283,0.903396928 -0.0627290905,0.615667707 0.0325713847,0.353888983 C0.112291616,0.135397334 0.318130097,0 0.537887984,0 Z" id="path-52"></path>
        <linearGradient x1="43.717041%" y1="61.346582%" x2="56.6683594%" y2="61.377566%" id="linearGradient-54">
            <stop stop-color="#00B1FF" offset="0%"></stop>
            <stop stop-color="#FC0303" offset="100%"></stop>
        </linearGradient>
        <path d="M0.536741741,0 L0.583877909,0.00216171756 L0.631646778,0.00843597098 L0.685355244,0.0206967568 C0.947823899,0.0948008715 1.11645334,0.356999747 1.06820995,0.631432428 L1.05594448,0.685145219 C0.981795289,0.947656118 0.7192494,1.11660621 0.445211104,1.06757213 L0.391428391,1.05538085 C0.128612183,0.981577948 -0.040017262,0.719008352 0.00822613204,0.444575671 C0.0542023502,0.183904167 0.28113084,0 0.536741741,0 Z" id="path-55"></path>
        <linearGradient x1="43.7196387%" y1="60.2617383%" x2="56.670957%" y2="60.2927223%" id="linearGradient-57">
            <stop stop-color="#00B1FF" offset="0%"></stop>
            <stop stop-color="#FC0303" offset="100%"></stop>
        </linearGradient>
        <path d="M0.537795212,0 L0.592839825,0.00277752697 C0.864278427,0.0303283043 1.07559042,0.259458832 1.07559042,0.538636747 L1.07281773,0.593611639 C1.04531473,0.864747989 0.81657876,1.0764299 0.537795212,1.0764299 L0.48282011,1.07365258 C0.21168272,1.04610489 0,0.817023789 0,0.538636747 C0,0.240846971 0.240847895,0 0.537795212,0 Z" id="path-58"></path>
        <linearGradient x1="43.7223145%" y1="59.1433887%" x2="56.6736328%" y2="59.1743727%" id="linearGradient-60">
            <stop stop-color="#00FFFF" offset="0%"></stop>
            <stop stop-color="#FC0303" offset="100%"></stop>
        </linearGradient>
        <path d="M0.539694342,0 L0.593973598,0.00276982072 C0.826800372,0.0266077411 1.02551775,0.20213189 1.06820995,0.444575671 L1.07500345,0.499247085 C1.09487728,0.771268533 0.906080511,1.01935528 0.631646778,1.06799393 L0.57704003,1.07478276 C0.305273956,1.09461172 0.0564695261,0.905469673 0.00822613204,0.631432428 L0.00143273966,0.576825992 C-0.0184395472,0.305062505 0.170381934,0.0562837439 0.445211104,0.00843597098 C0.476846117,0.00253079129 0.508481129,0 0.539694342,0 Z" id="path-61"></path>
        <linearGradient x1="43.7249805%" y1="58.025498%" x2="56.6762988%" y2="58.0564821%" id="linearGradient-63">
            <stop stop-color="#00FFFF" offset="0%"></stop>
            <stop stop-color="#FC0303" offset="100%"></stop>
        </linearGradient>
        <path d="M0.538731584,0 L0.593227287,0.00279050985 C0.791562705,0.0231432662 0.970936155,0.153604972 1.04362638,0.353888983 L1.05990606,0.406602474 C1.12714282,0.671275914 0.983994385,0.948229501 0.722214657,1.04352961 L0.669570474,1.05974435 C0.405197231,1.12672443 0.12787186,0.984293277 0.0325713847,0.722119116 L0.0163659582,0.669475238 C-0.0505232481,0.405104553 0.0926251833,0.12780496 0.354404912,0.0329002868 C0.415144136,0.0105449637 0.47757056,0 0.538731584,0 Z" id="path-64"></path>
        <linearGradient x1="43.7275781%" y1="56.942041%" x2="56.6788965%" y2="56.973025%" id="linearGradient-66">
            <stop stop-color="#00B1FF" offset="0%"></stop>
            <stop stop-color="#FC0303" offset="100%"></stop>
        </linearGradient>
        <path d="M0.537073919,0 L0.592764617,0.0028770879 C0.758890191,0.0200776109 0.914458528,0.113843428 1.0044285,0.269107474 L1.02943664,0.318129507 C1.14080177,0.566826401 1.04826936,0.864713388 0.807447826,1.00430235 L0.758351357,1.0293799 C0.509305957,1.14104581 0.211417828,1.04814303 0.0718283355,0.807322423 L0.046820199,0.75830039 C-0.0645449308,0.509603496 0.0279874807,0.211716509 0.268809013,0.0721275519 C0.353590847,0.0231989202 0.445965083,0 0.537073919,0 Z" id="path-67"></path>
        <linearGradient x1="43.7300098%" y1="55.9259473%" x2="56.6813281%" y2="55.9569313%" id="linearGradient-69">
            <stop stop-color="#00B1FF" offset="0%"></stop>
            <stop stop-color="#FC0303" offset="100%"></stop>
        </linearGradient>
        <path d="M0.537442101,0 L0.595010409,0.00305721566 C0.728748248,0.0173069217 0.856955727,0.0812489455 0.949962664,0.192340138 L0.985243154,0.239307501 C1.13622212,0.464722644 1.09635544,0.772369383 0.884161838,0.950312131 L0.837194046,0.985592361 C0.611774538,1.136569 0.304074129,1.09667623 0.125343338,0.884089759 L0.0902205697,0.837201132 C-0.0600725161,0.612127177 -0.020205839,0.304454193 0.191987765,0.126117766 C0.292798004,0.0413362578 0.415541853,0 0.537442101,0 Z" id="path-70"></path>
        <linearGradient x1="43.7321973%" y1="55.0080762%" x2="56.6835156%" y2="55.0390602%" id="linearGradient-72">
            <stop stop-color="#00B1FF" offset="0%"></stop>
            <stop stop-color="#FC0303" offset="100%"></stop>
        </linearGradient>
        <path d="M0.538285701,0 L0.599200675,0.00345445201 C0.700491299,0.0149855651 0.799731504,0.0554665092 0.883740038,0.126117766 L0.926644426,0.16623512 C1.1144666,0.361966894 1.12827165,0.671896969 0.949540864,0.884089759 L0.909580953,0.926994232 C0.714532558,1.11481919 0.404575049,1.12867668 0.191987765,0.950733929 L0.149161863,0.910542964 C-0.0383226248,0.714515494 -0.0522064116,0.404926607 0.125343338,0.192340138 C0.232058781,0.0653787751 0.384750441,0 0.538285701,0 Z" id="path-73"></path>
        <linearGradient x1="43.7341016%" y1="54.2163184%" x2="56.6854199%" y2="54.2473024%" id="linearGradient-75">
            <stop stop-color="#00FFFF" offset="0%"></stop>
            <stop stop-color="#FC0303" offset="100%"></stop>
        </linearGradient>
        <path d="M0.53889817,0 L0.593644457,0.00280411675 C0.666653004,0.0103087565 0.739337609,0.0329846465 0.807163076,0.0721275519 L0.853407759,0.102020362 C1.07455472,0.261447547 1.14331145,0.565710941 1.00372195,0.807322423 L0.97390338,0.853566929 C0.81482468,1.07471305 0.510584834,1.1434695 0.269367864,1.00388055 L0.223048933,0.974061984 C0.0015544158,0.81498235 -0.0672023066,0.510718956 0.0723871859,0.269107474 C0.171932025,0.0965918677 0.352884297,0 0.53889817,0 Z" id="path-76"></path>
        <linearGradient x1="43.7356348%" y1="53.5747363%" x2="56.6869531%" y2="53.6057203%" id="linearGradient-78">
            <stop stop-color="#00B1FF" offset="0%"></stop>
            <stop stop-color="#FC0303" offset="100%"></stop>
        </linearGradient>
        <path d="M0.538103428,0 L0.599483163,0.00354623225 C0.640507135,0.00829537146 0.681656085,0.0178561386 0.722430101,0.0324784883 L0.773102965,0.0539030947 C1.01831138,0.172561741 1.1391423,0.459944955 1.04384183,0.722119116 L1.02241261,0.772861399 C0.903710256,1.01837163 0.616004646,1.13885608 0.354620356,1.04395141 L0.303799099,1.02251743 C0.0578971198,0.90376765 -0.0629090841,0.615667707 0.0327868287,0.353888983 C0.11208526,0.135397334 0.318345541,0 0.538103428,0 Z" id="path-79"></path>
        <linearGradient x1="43.7367578%" y1="53.102832%" x2="56.6880762%" y2="53.133816%" id="linearGradient-81">
            <stop stop-color="#00B1FF" offset="0%"></stop>
            <stop stop-color="#FC0303" offset="100%"></stop>
        </linearGradient>
        <path d="M0.536742797,0 L0.583826241,0.00216171756 L0.631226034,0.00843597098 L0.684939134,0.0206967568 C0.947452585,0.0948008715 1.11642804,0.356999747 1.06778921,0.631432428 L1.05545413,0.685145219 C0.981002175,0.947656118 0.718802294,1.11660621 0.444368561,1.06757213 L0.390734342,1.05538085 C0.12861324,0.981577948 -0.0400162055,0.719008352 0.00822718851,0.444575671 C0.0542034066,0.183904167 0.281131896,0 0.536742797,0 Z" id="path-82"></path>
        <linearGradient x1="43.7374512%" y1="52.8149316%" x2="56.6887695%" y2="52.8459157%" id="linearGradient-84">
            <stop stop-color="#00B1FF" offset="0%"></stop>
            <stop stop-color="#FC0303" offset="100%"></stop>
        </linearGradient>
    </defs>
    <g id="case_connected_shower" stroke="none" stroke-width="1" fill="none" fill-rule="evenodd">
        <rect fill="#F0F4F7" x="0" y="0" width="320" height="220"></rect>
        <rect id="Rectangle" fill="url(#linearGradient-1)" x="0" y="0" width="320" height="220"></rect>
        <g id="Group" filter="url(#filter-2)" transform="translate(183, 55)">
            <g id="Group-52">
                <path d="M110,55 C110,85.3754007 85.3757281,110 54.9997891,110 C24.6242719,110 0,85.3754007 0,55 C0,24.6241775 24.6242719,0 54.9997891,0 C85.3757281,0 110,24.6241775 110,55" id="Fill-101" fill="#CECECE"></path>
                <path d="M108.804239,55 C108.804239,84.7148642 84.715653,108.804201 54.9998313,108.804201 C25.2844314,108.804201 1.19542385,84.7148642 1.19542385,55 C1.19542385,25.284714 25.2844314,1.19537709 54.9998313,1.19537709 C84.715653,1.19537709 108.804239,25.284714 108.804239,55" id="Fill-102" fill="url(#radialGradient-3)"></path>
                <path d="M54.9998313,86.9238232 C37.3690061,86.9238232 23.0758857,72.6307576 23.0758857,55 C23.0758857,37.3688207 37.3690061,23.075755 54.9998313,23.075755 C72.6310782,23.075755 86.9237769,37.3688207 86.9237769,55 C86.9237769,72.6307576 72.6310782,86.9238232 54.9998313,86.9238232 Z" id="Fill-103" fill="#FFFFFF"></path>
                <g id="Group-107" transform="translate(54.462, 26.6503)">
                    <mask id="mask-5" fill="white">
                        <use xlink:href="#path-4"></use>
                    </mask>
                    <g id="Clip-106"></g>
                    <polygon id="Fill-105" fill="url(#linearGradient-6)" mask="url(#mask-5)" points="-215.80351 204.68576 216.11986 204.68576 216.11986 -227.235954 -215.80351 -227.235954"></polygon>
                </g>
                <g id="Group-110" transform="translate(49.6322, 27.0725)">
                    <mask id="mask-8" fill="white">
                        <use xlink:href="#path-7"></use>
                    </mask>
                    <g id="Clip-109"></g>
                    <polygon id="Fill-108" fill="url(#linearGradient-9)" mask="url(#mask-8)" points="-210.973686 204.26354 220.949685 204.26354 220.949685 -227.658174 -210.973686 -227.658174"></polygon>
                </g>
                <g id="Group-113" transform="translate(44.9495, 28.3274)">
                    <mask id="mask-11" fill="white">
                        <use xlink:href="#path-10"></use>
                    </mask>
                    <g id="Clip-112"></g>
                    <polygon id="Fill-111" fill="url(#linearGradient-12)" mask="url(#mask-11)" points="-206.290976 203.008689 225.632395 203.008689 225.632395 -228.913025 -206.290976 -228.913025"></polygon>
                </g>
                <g id="Group-116" transform="translate(40.5561, 30.3761)">
                    <mask id="mask-14" fill="white">
                        <use xlink:href="#path-13"></use>
                    </mask>
                    <g id="Clip-115"></g>
                    <polygon id="Fill-114" fill="url(#linearGradient-15)" mask="url(#mask-14)" points="-201.897607 200.960013 230.025763 200.960013 230.025763 -230.961701 -201.897607 -230.961701"></polygon>
                </g>
                <g id="Group-119" transform="translate(36.5848, 33.1566)">
                    <mask id="mask-17" fill="white">
                        <use xlink:href="#path-16"></use>
                    </mask>
                    <g id="Clip-118"></g>
                    <polygon id="Fill-117" fill="url(#linearGradient-18)" mask="url(#mask-17)" points="-197.926257 198.179517 233.997113 198.179517 233.997113 -233.742197 -197.926257 -233.742197"></polygon>
                </g>
                <g id="Group-122" transform="translate(33.1567, 36.5845)">
                    <mask id="mask-20" fill="white">
                        <use xlink:href="#path-19"></use>
                    </mask>
                    <g id="Clip-121"></g>
                    <polygon id="Fill-120" fill="url(#linearGradient-21)" mask="url(#mask-20)" points="-194.498149 194.751561 237.425222 194.751561 237.425222 -237.170154 -194.498149 -237.170154"></polygon>
                </g>
                <g id="Group-125" transform="translate(30.3762, 40.5558)">
                    <mask id="mask-23" fill="white">
                        <use xlink:href="#path-22"></use>
                    </mask>
                    <g id="Clip-124"></g>
                    <polygon id="Fill-123" fill="url(#linearGradient-24)" mask="url(#mask-23)" points="-191.717678 190.780327 240.205693 190.780327 240.205693 -241.141387 -191.717678 -241.141387"></polygon>
                </g>
                <g id="Group-128" transform="translate(28.3274, 44.9496)">
                    <mask id="mask-26" fill="white">
                        <use xlink:href="#path-25"></use>
                    </mask>
                    <g id="Clip-127"></g>
                    <polygon id="Fill-126" fill="url(#linearGradient-27)" mask="url(#mask-26)" points="-189.66883 186.386452 242.254541 186.386452 242.254541 -245.535262 -189.66883 -245.535262"></polygon>
                </g>
                <g id="Group-131" transform="translate(27.0725, 49.6324)">
                    <mask id="mask-29" fill="white">
                        <use xlink:href="#path-28"></use>
                    </mask>
                    <g id="Clip-130"></g>
                    <polygon id="Fill-129" fill="url(#linearGradient-30)" mask="url(#mask-29)" points="-188.414017 181.703644 243.509354 181.703644 243.509354 -250.21807 -188.414017 -250.21807"></polygon>
                </g>
                <g id="Group-134" transform="translate(26.6502, 54.4616)">
                    <mask id="mask-32" fill="white">
                        <use xlink:href="#path-31"></use>
                    </mask>
                    <g id="Clip-133"></g>
                    <polygon id="Fill-132" fill="url(#linearGradient-33)" mask="url(#mask-32)" points="-187.991694 176.874473 243.931676 176.874473 243.931676 -255.047241 -187.991694 -255.047241"></polygon>
                </g>
                <g id="Group-137" transform="translate(27.0725, 59.2912)">
                    <mask id="mask-35" fill="white">
                        <use xlink:href="#path-34"></use>
                    </mask>
                    <g id="Clip-136"></g>
                    <polygon id="Fill-135" fill="url(#linearGradient-36)" mask="url(#mask-35)" points="-188.414017 172.044879 243.509354 172.044879 243.509354 -259.876835 -188.414017 -259.876835"></polygon>
                </g>
                <g id="Group-140" transform="translate(28.3274, 63.974)">
                    <mask id="mask-38" fill="white">
                        <use xlink:href="#path-37"></use>
                    </mask>
                    <g id="Clip-139"></g>
                    <polygon id="Fill-138" fill="url(#linearGradient-39)" mask="url(#mask-38)" points="-189.66883 167.362072 242.254541 167.362072 242.254541 -264.559642 -189.66883 -264.559642"></polygon>
                </g>
                <g id="Group-143" transform="translate(30.3762, 68.3675)">
                    <mask id="mask-41" fill="white">
                        <use xlink:href="#path-40"></use>
                    </mask>
                    <g id="Clip-142"></g>
                    <polygon id="Fill-141" fill="url(#linearGradient-42)" mask="url(#mask-41)" points="-191.717678 162.968618 240.205693 162.968618 240.205693 -268.953096 -191.717678 -268.953096"></polygon>
                </g>
                <g id="Group-146" transform="translate(33.1567, 72.3387)">
                    <mask id="mask-44" fill="white">
                        <use xlink:href="#path-43"></use>
                    </mask>
                    <g id="Clip-145"></g>
                    <polygon id="Fill-144" fill="url(#linearGradient-45)" mask="url(#mask-44)" points="-194.498149 158.997385 237.425222 158.997385 237.425222 -272.924329 -194.498149 -272.924329"></polygon>
                </g>
                <g id="Group-149" transform="translate(75.7671, 72.3387)">
                    <mask id="mask-47" fill="white">
                        <use xlink:href="#path-46"></use>
                    </mask>
                    <g id="Clip-148"></g>
                    <polygon id="Fill-147" fill="url(#linearGradient-48)" mask="url(#mask-47)" points="-237.108568 158.997385 194.814803 158.997385 194.814803 -272.924329 -237.108568 -272.924329"></polygon>
                </g>
                <g id="Group-152" transform="translate(78.5475, 68.3675)">
                    <mask id="mask-50" fill="white">
                        <use xlink:href="#path-49"></use>
                    </mask>
                    <g id="Clip-151"></g>
                    <polygon id="Fill-150" fill="url(#linearGradient-51)" mask="url(#mask-50)" points="-239.889021 162.968618 192.034349 162.968618 192.034349 -268.953096 -239.889021 -268.953096"></polygon>
                </g>
                <g id="Group-155" transform="translate(80.5963, 63.974)">
                    <mask id="mask-53" fill="white">
                        <use xlink:href="#path-52"></use>
                    </mask>
                    <g id="Clip-154"></g>
                    <polygon id="Fill-153" fill="url(#linearGradient-54)" mask="url(#mask-53)" points="-241.937734 167.362072 189.985637 167.362072 189.985637 -264.559642 -241.937734 -264.559642"></polygon>
                </g>
                <g id="Group-158" transform="translate(81.851, 59.2912)">
                    <mask id="mask-56" fill="white">
                        <use xlink:href="#path-55"></use>
                    </mask>
                    <g id="Clip-157"></g>
                    <polygon id="Fill-156" fill="url(#linearGradient-57)" mask="url(#mask-56)" points="-243.19247 172.044879 188.7309 172.044879 188.7309 -259.876835 -243.19247 -259.876835"></polygon>
                </g>
                <g id="Group-161" transform="translate(82.2739, 54.4616)">
                    <mask id="mask-59" fill="white">
                        <use xlink:href="#path-58"></use>
                    </mask>
                    <g id="Clip-160"></g>
                    <polygon id="Fill-159" fill="url(#linearGradient-60)" mask="url(#mask-59)" points="-243.615326 176.874473 188.308044 176.874473 188.308044 -255.047241 -243.615326 -255.047241"></polygon>
                </g>
                <g id="Group-164" transform="translate(81.851, 49.6324)">
                    <mask id="mask-62" fill="white">
                        <use xlink:href="#path-61"></use>
                    </mask>
                    <g id="Clip-163"></g>
                    <polygon id="Fill-162" fill="url(#linearGradient-63)" mask="url(#mask-62)" points="-243.19247 181.703644 188.7309 181.703644 188.7309 -250.21807 -243.19247 -250.21807"></polygon>
                </g>
                <g id="Group-167" transform="translate(80.5963, 44.9496)">
                    <mask id="mask-65" fill="white">
                        <use xlink:href="#path-64"></use>
                    </mask>
                    <g id="Clip-166"></g>
                    <polygon id="Fill-165" fill="url(#linearGradient-66)" mask="url(#mask-65)" points="-241.937734 186.386452 189.985637 186.386452 189.985637 -245.535262 -241.937734 -245.535262"></polygon>
                </g>
                <g id="Group-170" transform="translate(78.5475, 40.5558)">
                    <mask id="mask-68" fill="white">
                        <use xlink:href="#path-67"></use>
                    </mask>
                    <g id="Clip-169"></g>
                    <polygon id="Fill-168" fill="url(#linearGradient-69)" mask="url(#mask-68)" points="-239.889021 190.780327 192.034349 190.780327 192.034349 -241.141387 -239.889021 -241.141387"></polygon>
                </g>
                <g id="Group-173" transform="translate(75.7671, 36.5845)">
                    <mask id="mask-71" fill="white">
                        <use xlink:href="#path-70"></use>
                    </mask>
                    <g id="Clip-172"></g>
                    <polygon id="Fill-171" fill="url(#linearGradient-72)" mask="url(#mask-71)" points="-237.108568 194.751561 194.814803 194.751561 194.814803 -237.170154 -237.108568 -237.170154"></polygon>
                </g>
                <g id="Group-176" transform="translate(72.3391, 33.1566)">
                    <mask id="mask-74" fill="white">
                        <use xlink:href="#path-73"></use>
                    </mask>
                    <g id="Clip-175"></g>
                    <polygon id="Fill-174" fill="url(#linearGradient-75)" mask="url(#mask-74)" points="-233.680598 198.179517 198.242773 198.179517 198.242773 -233.742197 -233.680598 -233.742197"></polygon>
                </g>
                <g id="Group-179" transform="translate(68.3677, 30.3761)">
                    <mask id="mask-77" fill="white">
                        <use xlink:href="#path-76"></use>
                    </mask>
                    <g id="Clip-178"></g>
                    <polygon id="Fill-177" fill="url(#linearGradient-78)" mask="url(#mask-77)" points="-229.709159 200.960013 202.214212 200.960013 202.214212 -230.961701 -229.709159 -230.961701"></polygon>
                </g>
                <g id="Group-182" transform="translate(63.9737, 28.3274)">
                    <mask id="mask-80" fill="white">
                        <use xlink:href="#path-79"></use>
                    </mask>
                    <g id="Clip-181"></g>
                    <polygon id="Fill-180" fill="url(#linearGradient-81)" mask="url(#mask-80)" points="-225.315217 203.008689 206.608153 203.008689 206.608153 -228.913025 -225.315217 -228.913025"></polygon>
                </g>
                <g id="Group-185" transform="translate(59.2914, 27.0725)">
                    <mask id="mask-83" fill="white">
                        <use xlink:href="#path-82"></use>
                    </mask>
                    <g id="Clip-184"></g>
                    <polygon id="Fill-183" fill="url(#linearGradient-84)" mask="url(#mask-83)" points="-220.632909 204.26354 211.290461 204.26354 211.290461 -227.658174 -220.632909 -227.658174"></polygon>
                </g>
                <polygon id="Fill-186" fill="#3F86C1" points="52.0389628 76.3918509 52.0389628 82.4809347 57.9610372 79.4363928"></polygon>
                <path d="M41.8449228,29.3582477 C42.7028643,29.8534392 42.9964372,30.9501154 42.5016656,31.8084755 C42.0064722,32.6659919 40.90937,32.9599855 40.0514284,32.4643722 C39.1939087,31.9691807 38.899914,30.8725045 39.3951074,30.0149881 C39.8903008,29.156628 40.987403,28.8630562 41.8449228,29.3582477" id="Fill-188" fill="#3F86C1"></path>
                <text id="28" font-family="LucidaGrande, Lucida Grande" font-size="21.07392" font-weight="normal" letter-spacing="-0.00210739188" fill="#3F86C1">
                    <tspan x="41.2997081" y="59.6654113">28</tspan>
                </text>
            </g>
        </g>
    </g>
</svg>